#N canvas 504 38 1008 916 12;
#X obj 227 209 inlet;
#X floatatom 380 293 7 0 0 1 sample\ offset - - 0;
#X floatatom 533 293 5 0 0 1 grain\ ms - - 0;
#X obj 380 334 t f f, f 6;
#X floatatom 687 293 5 0 0 1 speed\ ratio - - 0;
#X obj 533 334 * 44.1;
#X obj 380 418 pack f f f, f 12;
#X obj 420 381 +;
#X obj 687 376 / 1, f 5;
#X obj 687 334 t b f;
#X msg 380 460 \$1 \, \$2 \$3;
#X obj 381 590 vline~;
#X obj 227 251 unpack s f f f, f 66;
#X obj 381 632 tabread4~;
#X msg 227 293 set \$1;
#X obj 503 548 f;
#X obj 503 506 bang;
#X obj 503 632 vline~;
#X obj 380 679 *~, f 18;
#X obj 312 873 outlet~;
#X obj 687 418 - 20;
#X msg 503 590 1 20 \, 0 20 \$1;
#X floatatom 26 370 5 0 0 0 - - - 0;
#X obj 27 333 / 2;
#X obj 136 462 unpack f f f;
#X obj 136 501 +;
#X obj 136 538 pack f f f, f 12;
#X msg 136 580 \$1 \, \$2 \$3;
#X obj 137 710 vline~;
#X obj 137 752 tabread4~;
#X obj 259 668 f;
#X obj 259 626 bang;
#X obj 259 752 vline~;
#X obj 136 799 *~, f 18;
#X msg 259 710 1 20 \, 0 20 \$1;
#X obj 25 462 pipe;
#X obj 26 415 t f f;
#X obj 313 840 *~ 0.6;
#X connect 0 0 12 0;
#X connect 1 0 3 0;
#X connect 2 0 5 0;
#X connect 2 0 8 0;
#X connect 2 0 23 0;
#X connect 3 0 6 0;
#X connect 3 1 7 0;
#X connect 4 0 9 0;
#X connect 5 0 7 1;
#X connect 6 0 10 0;
#X connect 6 0 24 0;
#X connect 7 0 6 1;
#X connect 8 0 6 2;
#X connect 8 0 20 0;
#X connect 9 0 8 0;
#X connect 9 1 8 1;
#X connect 10 0 11 0;
#X connect 10 0 16 0;
#X connect 11 0 13 0;
#X connect 12 0 14 0;
#X connect 12 1 1 0;
#X connect 12 2 2 0;
#X connect 12 3 4 0;
#X connect 13 0 18 0;
#X connect 14 0 13 0;
#X connect 15 0 21 0;
#X connect 16 0 15 0;
#X connect 17 0 18 1;
#X connect 18 0 37 0;
#X connect 20 0 15 1;
#X connect 21 0 17 0;
#X connect 22 0 36 0;
#X connect 23 0 22 0;
#X connect 24 0 25 1;
#X connect 24 1 26 1;
#X connect 24 2 26 2;
#X connect 25 0 26 0;
#X connect 26 0 27 0;
#X connect 27 0 28 0;
#X connect 27 0 31 0;
#X connect 28 0 29 0;
#X connect 29 0 33 0;
#X connect 30 0 34 0;
#X connect 31 0 30 0;
#X connect 32 0 33 1;
#X connect 33 0 37 0;
#X connect 34 0 32 0;
#X connect 35 0 25 0;
#X connect 36 0 35 0;
#X connect 36 1 35 1;
#X connect 37 0 19 0;
