#N canvas 568 0 1260 1022 12;
#X obj 176 141 until;
#X msg 176 114 88;
#X floatatom 176 195 5 0 127 0 - - - 0;
#X obj 534 257 int;
#X msg 427 298 A;
#X msg 487 298 B;
#X msg 154 298 C;
#X msg 217 298 D;
#X msg 277 298 E;
#X obj 534 296 t b f;
#X symbolatom 319 454 10 0 0 0 - - - 0;
#X obj 319 408 pack s f;
#X obj 176 268 select 0 1 2 3 4 5 6 7 8 9 10 11;
#X obj 176 244 mod 12;
#X msg 305 298 F;
#X msg 369 298 G;
#X obj 534 235 / 12;
#X msg 187 298 C#;
#X msg 246 298 Eb;
#X msg 338 298 F#;
#X msg 398 298 G#;
#X msg 457 298 Bb;
#X obj 561 321 - 1;
#X obj 176 218 t f f;
#X text 215 193 <-- MIDI number;
#X text 393 452 <-- MIDI note name;
#X msg 319 431 symbol \$1\$2;
#X obj 174 9 bng 19 250 50 0 empty empty empty 0 -10 0 12 #fcfcfc #000000 #000000;
#X obj 248 166 + 1;
#X msg 176 86 21;
#X obj 176 166 float;
#X text 224 111 <-- Iterate once for each note;
#X obj 319 516 file_exists;
#X obj 319 483 makefilename instruments/tubed_rhodes/%s.wav;
#X obj 207 62 text define samples;
#X obj 506 759 text insert samples;
#X obj 279 547 spigot;
#X obj 175 35 t b b;
#X obj 141 551 spigot;
#X obj 312 575 print filename;
#X obj 140 591 print note;
#X obj 252 613 pack f s;
#X obj 248 751 soundfiler;
#X floatatom 248 780 5 0 0 0 - - - 0;
#X text 20 552 MIDI number -->;
#X text 339 550 <-- filename;
#X text 435 725 <-- write the sample to the array;
#X obj 168 962 dac~;
#X obj 648 78 samples;
#X text 722 76 <-- subpatch that stores sample arrays;
#X msg 248 723 read -resize \$2 array\$1;
#X obj 176 871 line~;
#X obj 176 901 tabread4~ array81;
#X obj 177 931 *~ 0.2;
#X obj 176 815 pack f f;
#X msg 176 844 0 \, \$1 \$2;
#X obj 249 814 expr $f1 / 44.1;
#X text 295 781 <-- num samples in wav file;
#X text 370 814 <-- duration in ms is num samples / sample rate * 1000;
#X text 249 845 <-- Send a signal to play samples 0-N over duration;
#X connect 0 0 30 0;
#X connect 1 0 0 0;
#X connect 2 0 23 0;
#X connect 2 0 38 0;
#X connect 3 0 9 0;
#X connect 4 0 11 0;
#X connect 5 0 11 0;
#X connect 6 0 11 0;
#X connect 7 0 11 0;
#X connect 8 0 11 0;
#X connect 9 1 22 0;
#X connect 10 0 33 0;
#X connect 11 0 26 0;
#X connect 12 0 6 0;
#X connect 12 1 17 0;
#X connect 12 2 7 0;
#X connect 12 3 18 0;
#X connect 12 4 8 0;
#X connect 12 5 14 0;
#X connect 12 6 19 0;
#X connect 12 7 15 0;
#X connect 12 8 20 0;
#X connect 12 9 4 0;
#X connect 12 10 21 0;
#X connect 12 11 5 0;
#X connect 13 0 12 0;
#X connect 14 0 11 0;
#X connect 15 0 11 0;
#X connect 16 0 3 0;
#X connect 17 0 11 0;
#X connect 18 0 11 0;
#X connect 19 0 11 0;
#X connect 20 0 11 0;
#X connect 21 0 11 0;
#X connect 22 0 11 1;
#X connect 23 0 13 0;
#X connect 23 1 16 0;
#X connect 26 0 10 0;
#X connect 27 0 37 0;
#X connect 28 0 30 1;
#X connect 29 0 1 0;
#X connect 29 0 30 1;
#X connect 30 0 2 0;
#X connect 30 0 28 0;
#X connect 32 0 36 1;
#X connect 32 0 38 1;
#X connect 33 0 32 0;
#X connect 33 0 36 0;
#X connect 36 0 39 0;
#X connect 36 0 41 1;
#X connect 37 0 29 0;
#X connect 37 1 34 0;
#X connect 38 0 40 0;
#X connect 38 0 41 0;
#X connect 41 0 50 0;
#X connect 42 0 43 0;
#X connect 43 0 54 0;
#X connect 43 0 56 0;
#X connect 50 0 42 0;
#X connect 51 0 52 0;
#X connect 52 0 53 0;
#X connect 53 0 47 1;
#X connect 53 0 47 0;
#X connect 54 0 55 0;
#X connect 55 0 51 0;
#X connect 56 0 54 1;
