#N canvas 8 46 1496 901 12;
#X obj 176 141 until;
#X msg 176 114 88;
#X floatatom 176 195 5 0 127 0 - - - 0;
#X obj 534 257 int;
#X msg 427 298 A;
#X msg 487 298 B;
#X msg 154 298 C;
#X msg 217 298 D;
#X msg 277 298 E;
#X obj 534 296 t b f;
#X symbolatom 319 454 10 0 0 0 - - - 0;
#X obj 319 408 pack s f;
#X obj 176 268 select 0 1 2 3 4 5 6 7 8 9 10 11;
#X obj 176 244 mod 12;
#X msg 305 298 F;
#X msg 369 298 G;
#X obj 534 235 / 12;
#X msg 187 298 C#;
#X msg 246 298 Eb;
#X msg 338 298 F#;
#X msg 398 298 G#;
#X msg 457 298 Bb;
#X obj 561 321 - 1;
#X obj 176 218 t f f;
#X text 215 193 <-- MIDI number;
#X text 393 452 <-- MIDI note name;
#X msg 319 431 symbol \$1\$2;
#X obj 174 9 bng 19 250 50 0 empty empty empty 0 -10 0 12 #fcfcfc #000000 #000000;
#X obj 248 166 + 1;
#X msg 176 86 21;
#X obj 176 166 float;
#X text 224 111 <-- Iterate once for each note;
#X obj 319 516 file_exists;
#X obj 319 483 makefilename instruments/tubed_rhodes/%s.wav;
#X obj 207 62 text define samples;
#X obj 413 766 text insert samples;
#X obj 279 547 spigot;
#X obj 175 35 t b b;
#X obj 141 551 spigot;
#X obj 312 575 print filename;
#X obj 140 591 print note;
#N canvas 42 702 450 300 samples 0;
#X obj 1 21 array define myArray21;
#X obj 1 24 array define myArray24;
#X obj 1 30 array define myArray30;
#X obj 1 33 array define myArray33;
#X obj 1 36 array define myArray36;
#X obj 1 42 array define myArray42;
#X obj 1 45 array define myArray45;
#X obj 1 48 array define myArray48;
#X obj 1 54 array define myArray54;
#X obj 1 57 array define myArray57;
#X obj 1 60 array define myArray60;
#X obj 1 66 array define myArray66;
#X obj 1 69 array define myArray69;
#X obj 1 72 array define myArray72;
#X obj 1 78 array define myArray78;
#X obj 1 81 array define myArray81;
#X obj 1 84 array define myArray84;
#X obj 1 88 array define myArray88;
#X obj 1 21 array define myArray21;
#X obj 1 24 array define myArray24;
#X obj 1 30 array define myArray30;
#X obj 1 33 array define myArray33;
#X obj 1 36 array define myArray36;
#X obj 1 42 array define myArray42;
#X obj 1 45 array define myArray45;
#X obj 1 48 array define myArray48;
#X obj 1 54 array define myArray54;
#X obj 1 57 array define myArray57;
#X obj 1 60 array define myArray60;
#X obj 1 66 array define myArray66;
#X obj 1 69 array define myArray69;
#X obj 1 72 array define myArray72;
#X obj 1 78 array define myArray78;
#X obj 1 81 array define myArray81;
#X obj 1 84 array define myArray84;
#X obj 1 88 array define myArray88;
#X obj 1 16 array define myArray16;
#X obj 1 18 array define myArray18;
#X obj 1 21 array define myArray21;
#X obj 1 24 array define myArray24;
#X obj 1 30 array define myArray30;
#X obj 1 33 array define myArray33;
#X obj 1 36 array define myArray36;
#X obj 1 42 array define myArray42;
#X obj 1 45 array define myArray45;
#X obj 1 48 array define myArray48;
#X obj 1 54 array define myArray54;
#X obj 1 57 array define myArray57;
#X obj 1 60 array define myArray60;
#X obj 1 66 array define myArray66;
#X obj 1 69 array define myArray69;
#X obj 1 72 array define myArray72;
#X obj 1 78 array define myArray78;
#X obj 1 81 array define myArray81;
#X obj 1 84 array define myArray84;
#X obj 1 21 array define myArray21;
#X obj 1 24 array define myArray24;
#X obj 1 30 array define myArray30;
#X obj 1 33 array define myArray33;
#X obj 1 36 array define myArray36;
#X obj 1 42 array define myArray42;
#X obj 1 45 array define myArray45;
#X obj 1 48 array define myArray48;
#X obj 1 54 array define myArray54;
#X obj 1 57 array define myArray57;
#X obj 1 60 array define myArray60;
#X obj 1 66 array define myArray66;
#X obj 1 69 array define myArray69;
#X obj 1 72 array define myArray72;
#X obj 1 78 array define myArray78;
#X obj 1 81 array define myArray81;
#X obj 1 84 array define myArray84;
#X obj 1 88 array define myArray88;
#X obj 1 21 array define myArray21;
#X obj 1 24 array define myArray24;
#X obj 1 30 array define myArray30;
#X obj 1 33 array define myArray33;
#X obj 1 36 array define myArray36;
#X obj 1 42 array define myArray42;
#X obj 1 45 array define myArray45;
#X obj 1 48 array define myArray48;
#X obj 1 54 array define myArray54;
#X obj 1 57 array define myArray57;
#X obj 1 60 array define myArray60;
#X obj 1 66 array define myArray66;
#X obj 1 69 array define myArray69;
#X obj 1 72 array define myArray72;
#X obj 1 78 array define myArray78;
#X obj 1 81 array define myArray81;
#X obj 1 84 array define myArray84;
#X obj 1 88 array define myArray88;
#X obj 1 21 array define myArray21;
#X obj 1 24 array define myArray24;
#X obj 1 30 array define myArray30;
#X obj 1 33 array define myArray33;
#X obj 1 36 array define myArray36;
#X obj 1 42 array define myArray42;
#X obj 1 45 array define myArray45;
#X obj 1 48 array define myArray48;
#X obj 1 54 array define myArray54;
#X obj 1 57 array define myArray57;
#X obj 1 60 array define myArray60;
#X obj 1 66 array define myArray66;
#X obj 1 69 array define myArray69;
#X obj 1 72 array define myArray72;
#X obj 1 78 array define myArray78;
#X obj 1 81 array define myArray81;
#X obj 1 84 array define myArray84;
#X obj 1 88 array define myArray88;
#X obj 1 21 array define myArray21;
#X obj 1 24 array define myArray24;
#X obj 1 30 array define myArray30;
#X obj 1 33 array define myArray33;
#X obj 1 36 array define myArray36;
#X obj 1 42 array define myArray42;
#X obj 1 45 array define myArray45;
#X obj 1 48 array define myArray48;
#X obj 1 54 array define myArray54;
#X obj 1 57 array define myArray57;
#X obj 1 60 array define myArray60;
#X obj 1 66 array define myArray66;
#X obj 1 69 array define myArray69;
#X obj 1 72 array define myArray72;
#X obj 1 78 array define myArray78;
#X obj 1 81 array define myArray81;
#X obj 1 84 array define myArray84;
#X obj 1 88 array define myArray88;
#X obj 1 21 array define myArray21;
#X obj 1 24 array define myArray24;
#X obj 1 30 array define myArray30;
#X obj 1 33 array define myArray33;
#X obj 1 36 array define myArray36;
#X obj 1 42 array define myArray42;
#X obj 1 45 array define myArray45;
#X obj 1 48 array define myArray48;
#X obj 1 54 array define myArray54;
#X obj 1 57 array define myArray57;
#X obj 1 60 array define myArray60;
#X obj 1 66 array define myArray66;
#X obj 1 69 array define myArray69;
#X obj 1 72 array define myArray72;
#X obj 1 78 array define myArray78;
#X obj 1 81 array define myArray81;
#X obj 1 84 array define myArray84;
#X obj 1 88 array define myArray88;
#X obj 1 21 array define myArray21;
#X obj 1 24 array define myArray24;
#X obj 1 30 array define myArray30;
#X obj 1 33 array define myArray33;
#X obj 1 36 array define myArray36;
#X obj 1 42 array define myArray42;
#X obj 1 45 array define myArray45;
#X obj 1 48 array define myArray48;
#X obj 1 54 array define myArray54;
#X obj 1 57 array define myArray57;
#X obj 1 60 array define myArray60;
#X obj 1 66 array define myArray66;
#X obj 1 69 array define myArray69;
#X obj 1 72 array define myArray72;
#X obj 1 78 array define myArray78;
#X obj 1 81 array define myArray81;
#X obj 1 84 array define myArray84;
#X obj 1 88 array define myArray88;
#X restore 583 105 pd samples;
#X text 222 86 `;
#X obj 252 613 pack f s;
#X obj 152 791 print omg;
#X msg 338 672 obj 1 \$1 array define myArray\$1;
#X obj 252 645 t l l;
#X obj 770 656 s pd-samples;
#X msg 248 723 read -resize \$2 myArray\$1;
#X obj 248 751 soundfiler;
#X floatatom 248 780 5 0 0 0 - - - 0;
#X text 20 552 MIDI number -->;
#X text 339 550 <-- filename;
#X text 868 655 <-- define a new array in the "samples" sub-patch;
#X text 435 725 <-- write the sample to the array;
#X obj 487 1028 dac~;
#X obj 487 960 tabread4~ myArray81;
#X obj 484 824 expr 44100 / $f1;
#X floatatom 485 850 5 0 0 0 - - - 0;
#X obj 486 874 phasor~;
#X obj 486 905 *~;
#X floatatom 639 921 5 0 0 0 - - - 0;
#X msg 639 946 \$1 20;
#X obj 640 971 line~;
#X obj 525 990 *~;
#N canvas 0 22 450 278 (subpatch) 0;
#X array array1 100 float 3;
#A 0 0.0740095 0.116427 0.151021 0.176415 0.190709 0.192479 0.183046 0.161849 0.130333 0.0905839 0.0452982 -0.00305973 -0.0513485 -0.0967704 -0.1354 -0.16526 -0.185462 -0.19384 -0.189444 -0.17407 -0.147381 -0.110703 -0.0684181 -0.0217016 0.0267727 0.073383 0.114843 0.150391 0.175885 0.189747 0.191506 0.18173 0.160032 0.129066 0.0894093 0.0436982 -0.00376036 -0.0517845 -0.0957375 -0.134159 -0.164583 -0.184389 -0.192947 -0.18915 -0.173287 -0.146802 -0.111206 -0.0682384 -0.0211006 0.0267991 0.0727663 0.11423 0.149216 0.174418 0.188612 0.190668 0.180456 0.159672 0.128848 0.0894366 0.044633 -0.00253823 -0.0506229 -0.0950722 -0.133408 -0.163527 -0.183751 -0.191762 -0.187859 -0.172868 -0.146613 -0.111598 -0.0694823 -0.0224842 0.0254791 0.071155 0.113139 0.14894 0.174462 0.188801 0.191197 0.181706 0.161269 0.130265 0.0909541 0.0458932 -0.00187817 -0.0495129 -0.0937148 -0.132418 -0.162975 -0.183196 -0.191181 -0.187647 -0.172999 -0.146733 -0.110776 -0.0679665 -0.0211833 0.0265156;
#X coords 0 1 100 -1 200 140 1;
#X restore 723 409 graph;
#X obj 314 1013 tabwrite~ array1;
#X obj 487 933 +~ 1;
#X connect 0 0 30 0;
#X connect 1 0 0 0;
#X connect 2 0 23 0;
#X connect 2 0 38 0;
#X connect 3 0 9 0;
#X connect 4 0 11 0;
#X connect 5 0 11 0;
#X connect 6 0 11 0;
#X connect 7 0 11 0;
#X connect 8 0 11 0;
#X connect 9 1 22 0;
#X connect 10 0 33 0;
#X connect 11 0 26 0;
#X connect 12 0 6 0;
#X connect 12 1 17 0;
#X connect 12 2 7 0;
#X connect 12 3 18 0;
#X connect 12 4 8 0;
#X connect 12 5 14 0;
#X connect 12 6 19 0;
#X connect 12 7 15 0;
#X connect 12 8 20 0;
#X connect 12 9 4 0;
#X connect 12 10 21 0;
#X connect 12 11 5 0;
#X connect 13 0 12 0;
#X connect 14 0 11 0;
#X connect 15 0 11 0;
#X connect 16 0 3 0;
#X connect 17 0 11 0;
#X connect 18 0 11 0;
#X connect 19 0 11 0;
#X connect 20 0 11 0;
#X connect 21 0 11 0;
#X connect 22 0 11 1;
#X connect 23 0 13 0;
#X connect 23 1 16 0;
#X connect 26 0 10 0;
#X connect 27 0 37 0;
#X connect 27 0 66 0;
#X connect 28 0 30 1;
#X connect 29 0 1 0;
#X connect 29 0 30 1;
#X connect 30 0 2 0;
#X connect 30 0 28 0;
#X connect 32 0 36 1;
#X connect 32 0 38 1;
#X connect 33 0 32 0;
#X connect 33 0 36 0;
#X connect 36 0 39 0;
#X connect 36 0 43 1;
#X connect 37 0 29 0;
#X connect 37 1 34 0;
#X connect 38 0 40 0;
#X connect 38 0 43 0;
#X connect 43 0 46 0;
#X connect 46 0 48 0;
#X connect 46 1 45 0;
#X connect 48 0 44 0;
#X connect 48 0 49 0;
#X connect 49 0 50 0;
#X connect 50 0 57 0;
#X connect 50 0 60 0;
#X connect 56 0 64 0;
#X connect 57 0 58 0;
#X connect 58 0 59 0;
#X connect 59 0 60 0;
#X connect 60 0 67 0;
#X connect 61 0 62 0;
#X connect 62 0 63 0;
#X connect 63 0 64 1;
#X connect 64 0 55 0;
#X connect 64 0 55 1;
#X connect 64 0 66 0;
#X connect 67 0 56 0;
