#N canvas -1706 -433 1706 1387 12;
#X obj 543 409 unpack, f 34;
#X text 38 33 This subpatch receives an instrument name and returns a list of: (midi_note \, array_name \, note_offset \, num_samples), f 65;
#X obj 543 379 r notes;
#X text 611 378 <-- receive midi notes and velocity;
#X obj 284 607 poly 8 1, f 34;
#X obj 373 118 inlet;
#X msg 735 254 -1;
#X text 920 193 <-- ensure text lists exist;
#X text 959 302 <-- ensure text lists begin empty;
#X obj 735 194 text define note_to_array;
#X obj 758 284 text delete note_to_array;
#X obj 374 199 load_samples;
#X obj 374 229 text fromlist note_to_array;
#X text 124 201 populate note_to_array list -->;
#X text 434 117 <-- left inlet: name of instrument;
#X floatatom 283 642 5 0 0 0 voice\ --> - - 0;
#X floatatom 519 644 5 0 0 1 <--\ vel - - 0;
#X floatatom 401 643 4 0 0 1 <--\ note - - 0;
#X obj 543 503 text search note_to_array \$1;
#X obj 543 533 text get note_to_array;
#X obj 543 563 unpack f s f f, f 15;
#X floatatom 543 439 5 0 0 0 midi\ note\ --> - - 0;
#X text 168 563 midi_note \, array_name \, note_offset \, num_samples -->;
#X obj 522 788 pack f f f f f s, f 23;
#X obj 735 224 text define note_to_voice;
#X obj 735 314 text delete note_to_voice;
#X obj 296 851 text insert note_to_voice;
#X obj 296 818 pack f f;
#X obj 784 870 select 0;
#X obj 732 966 text search note_to_voice \$1;
#X obj 732 935 spigot, f 8;
#X msg 784 901 1;
#X msg 837 902 0;
#X obj 734 1055 text get note_to_voice 1;
#X floatatom 734 1084 5 0 0 1 <--\ voice - - 0;
#X obj 744 1025 text delete note_to_voice \$1;
#X obj 522 825 route 1 2 3 4 5 6 7 8, f 23;
#X obj 661 864 voice;
#X obj 523 1081 voice;
#X obj 542 1050 voice;
#X obj 562 1019 voice;
#X obj 580 990 voice;
#X obj 603 963 voice;
#X obj 621 929 voice;
#X obj 641 896 voice;
#X obj 669 1120 +~;
#X obj 734 1123 route 1 2 3 4 5 6 7 8, f 23;
#X obj 779 538 t f f;
#X obj 497 470 t f f f;
#X obj 283 704 t f f;
#X obj 316 782 f;
#X obj 316 744 t b f;
#X obj 669 1154 outlet~;
#X obj 373 148 t b s b b b, f 14;
#X obj 413 277 switch~;
#X msg 581 229 0;
#X msg 333 230 1;
#X obj 175 256 pack s;
#X msg 518 298 \; screenLine1 Loading... \;;
#X msg 176 297 \; screenLine1 K88: \$1 \;;
#X text 701 789 <-- voice \, midi_note \, velocity \, note_offset \, num_samples \, array_name, f 69;
#X obj 417 673 stripnote, f 15;
#X obj 283 672 stripnote, f 14;
#X floatatom 778 442 5 0 0 0 velocity\ --> - - 0;
#X text 144 672 ignore note-off -->;
#X text 166 607 assign voice -->;
#X obj 733 995 t f f;
#X connect 0 0 21 0;
#X connect 0 1 63 0;
#X connect 2 0 0 0;
#X connect 4 0 15 0;
#X connect 4 1 17 0;
#X connect 4 2 16 0;
#X connect 5 0 53 0;
#X connect 6 0 10 0;
#X connect 6 0 25 0;
#X connect 9 0 24 0;
#X connect 11 0 12 0;
#X connect 15 0 62 0;
#X connect 16 0 61 1;
#X connect 16 0 62 1;
#X connect 17 0 50 1;
#X connect 17 0 61 0;
#X connect 18 0 19 0;
#X connect 19 0 20 0;
#X connect 20 1 23 5;
#X connect 20 2 23 3;
#X connect 20 3 23 4;
#X connect 21 0 48 0;
#X connect 23 0 36 0;
#X connect 27 0 26 0;
#X connect 28 0 31 0;
#X connect 28 1 32 0;
#X connect 29 0 66 0;
#X connect 30 0 29 0;
#X connect 31 0 30 1;
#X connect 32 0 30 1;
#X connect 33 0 34 0;
#X connect 34 0 46 0;
#X connect 36 0 38 0;
#X connect 36 1 39 0;
#X connect 36 2 40 0;
#X connect 36 3 41 0;
#X connect 36 4 42 0;
#X connect 36 5 43 0;
#X connect 36 6 44 0;
#X connect 36 7 37 0;
#X connect 37 0 45 0;
#X connect 38 0 45 0;
#X connect 39 0 45 0;
#X connect 40 0 45 0;
#X connect 41 0 45 0;
#X connect 42 0 45 0;
#X connect 43 0 45 0;
#X connect 44 0 45 0;
#X connect 45 0 52 0;
#X connect 46 0 38 1;
#X connect 46 1 39 1;
#X connect 46 2 40 1;
#X connect 46 3 41 1;
#X connect 46 4 42 1;
#X connect 46 5 43 1;
#X connect 46 6 44 1;
#X connect 46 7 37 1;
#X connect 47 0 28 0;
#X connect 47 1 4 1;
#X connect 48 0 30 0;
#X connect 48 1 4 0;
#X connect 48 2 18 0;
#X connect 49 0 23 0;
#X connect 49 1 51 0;
#X connect 50 0 27 0;
#X connect 51 0 50 0;
#X connect 51 1 27 1;
#X connect 53 0 56 0;
#X connect 53 0 57 0;
#X connect 53 1 11 0;
#X connect 53 1 57 0;
#X connect 53 2 6 0;
#X connect 53 3 9 0;
#X connect 53 4 55 0;
#X connect 53 4 58 0;
#X connect 55 0 54 0;
#X connect 56 0 54 0;
#X connect 57 0 59 0;
#X connect 61 0 23 1;
#X connect 61 1 23 2;
#X connect 62 0 49 0;
#X connect 63 0 47 0;
#X connect 66 0 35 0;
#X connect 66 1 33 0;
