#N canvas -1706 -433 1706 1387 10;
#X obj 603 23 bng 16 250 50 0 empty empty empty 0 -8 0 10 #fcfcfc #000000 #000000;
#X obj 709 250 folder_list ./instruments/*/;
#X obj 733 183 text define instruments;
#X obj 773 127 text delete instruments;
#X msg 773 100 -1;
#X obj 709 312 text insert instruments;
#X obj 382 109 text size instruments;
#X obj 321 109 r knob1;
#X obj 321 138 *;
#X obj 321 168 int;
#X obj 321 224 change;
#X obj 321 252 text get instruments;
#X obj 628 24 loadbang;
#X obj 524 512 throw~ outL;
#X obj 613 512 throw~ outR;
#X obj 321 195 min;
#X obj 288 341 symbol;
#X obj 205 257 bang;
#X obj 205 283 delay 200 1 msec;
#X obj 383 169 - 1;
#X obj 709 281 split_path;
#X obj 524 482 load_instrument;
#X obj 602 64 t b b b b b, f 16;
#X obj 653 416 text define state;
#X msg 356 362 write state.txt;
#X obj 356 281 t b s;
#X msg 383 307 list instrument \$1;
#X obj 383 334 text set state;
#X msg 528 109 symbol instrument;
#X obj 528 162 text get state;
#X obj 528 137 text search state;
#X obj 528 185 unpack s s;
#X connect 0 0 22 0;
#X connect 1 0 20 0;
#X connect 4 0 3 0;
#X connect 6 0 8 1;
#X connect 6 0 19 0;
#X connect 7 0 8 0;
#X connect 8 0 9 0;
#X connect 9 0 15 0;
#X connect 10 0 11 0;
#X connect 10 0 17 0;
#X connect 11 0 16 1;
#X connect 11 0 25 0;
#X connect 12 0 22 0;
#X connect 15 0 10 0;
#X connect 16 0 21 0;
#X connect 17 0 18 0;
#X connect 18 0 16 0;
#X connect 19 0 15 1;
#X connect 20 0 5 0;
#X connect 21 0 13 0;
#X connect 21 0 14 0;
#X connect 22 0 6 0;
#X connect 22 1 28 0;
#X connect 22 2 1 0;
#X connect 22 2 23 0;
#X connect 22 3 2 0;
#X connect 22 4 4 0;
#X connect 24 0 23 0;
#X connect 25 0 24 0;
#X connect 25 1 26 0;
#X connect 26 0 27 0;
#X connect 28 0 30 0;
#X connect 29 0 31 0;
#X connect 30 0 29 0;
#X connect 31 0 21 0;
