#N canvas 756 38 756 916 10;
#X obj 816 800 loadbang;
#X obj 196 585 r aux;
#X obj 1011 826 r~ inL;
#X obj 1064 826 r~ inR;
#X obj 148 184 r knob1;
#X obj 148 254 s screenLine1;
#X msg 816 826 \; screenLine1 Basic \; screenLine2 Organelle \; screenLine3 Patch \; screenLine4 -------- \; screenLine5 Hello! \;;
#X obj 243 184 r knob2;
#X obj 337 184 r knob3;
#X obj 432 184 r knob4;
#X msg 243 219 Knob 2: \$1;
#X msg 148 219 Knob 1: \$1;
#X msg 337 219 Knob 3: \$1;
#X msg 432 219 Knob 4: \$1;
#X obj 243 254 s screenLine2;
#X obj 337 254 s screenLine3;
#X obj 432 254 s screenLine4;
#X obj 62 364 int;
#X obj 62 294 * 6;
#X obj 62 329 + 1;
#X msg 62 399 \; led \$1 \;;
#X msg 115 363 \; led 0 \;;
#X obj 115 294 bng 15 250 50 0 empty empty empty 17 7 0 10 #fcfcfc #000000 #000000;
#X obj 115 328 del 1000;
#X text 1122 825 L/R inputs are not used here.;
#X text 1123 894 be wary of feedback.;
#X text 1122 874 If testing with internal mic & speaker \,;
#X msg 73 700 Aux held!;
#X obj 73 735 s screenLine5;
#X msg 313 666 Aux released!;
#X obj 313 701 s screenLine5;
#X obj 196 620 sel 1;
#X obj 274 829 s screenLine5;
#X msg 274 794 Aux off;
#X obj 272 706 bng 15 250 50 0 empty empty empty 17 7 0 10 #fcfcfc #000000 #000000;
#X obj 272 740 delay 1000;
#X msg 313 620 \; led 7 \;;
#X msg 340 794 \; led 0 \;;
#X msg 73 654 \; led 1 \;;
#X text 66 534 When Aux is pushed \, sel sends a signal left if the value is 1 (button is down) and right if the value is 0 (note off \, button has been released):;
#X text 197 505 AUX BUTTON;
#X text 231 124 KNOB FUNCTIONS;
#X text 73 769 Right sets LED to red \; and prints a message \; to line 5;
#X text 329 23 Use this patch to see how basic Organelle / Pd \; functions work \, and as a template for new patches.;
#X text 713 23 You can play a basic synth \, change knob values \, use \; the aux button \, send screen messages and set the LED \; colour. A simple wireless connection is also included \,;
#X text 31 23 ORGANELLE STARTER PATCH / CHEAT SHEET \; v1.0 \; nick.dimmock@gmail.com \; CC0 / Public domain;
#X text 168 149 Knobs feed values (0-1) to screenlines 1-4:;
#X text 187 319 Knob 1 changes the LED colour and turns it on \; After 1s \, it turns it off again \; LED colours range from 1 to 7 \, so we multiply \; the knob value by 6 and add 1;
#X text 383 739 Left sets the LED to white and shows a \; 'released' message on line 5 then after 1a \; turns the LED off and shows an 'off' message.;
#X obj 650 154 loadbang;
#X obj 650 237 play_samples;
#X msg 652 194 symbol Cinematic\ Piano;
#X obj 626 284 throw~ outL;
#X obj 716 285 throw~ outR;
#X connect 0 0 6 0;
#X connect 1 0 31 0;
#X connect 4 0 11 0;
#X connect 4 0 18 0;
#X connect 4 0 22 0;
#X connect 7 0 10 0;
#X connect 8 0 12 0;
#X connect 9 0 13 0;
#X connect 10 0 14 0;
#X connect 11 0 5 0;
#X connect 12 0 15 0;
#X connect 13 0 16 0;
#X connect 17 0 20 0;
#X connect 18 0 19 0;
#X connect 19 0 17 0;
#X connect 22 0 23 0;
#X connect 23 0 21 0;
#X connect 27 0 28 0;
#X connect 29 0 30 0;
#X connect 31 0 27 0;
#X connect 31 0 38 0;
#X connect 31 1 29 0;
#X connect 31 1 36 0;
#X connect 31 1 34 0;
#X connect 33 0 32 0;
#X connect 34 0 35 0;
#X connect 35 0 33 0;
#X connect 35 0 37 0;
#X connect 49 0 51 0;
#X connect 50 0 52 0;
#X connect 50 0 53 0;
#X connect 51 0 50 0;
