#N canvas 504 38 1008 916 10;
#X obj 61 20 loadbang;
#X obj 993 129 r aux;
#X msg 870 244 Aux held!;
#X obj 870 279 s screenLine5;
#X msg 1110 210 Aux released!;
#X obj 1110 245 s screenLine5;
#X obj 993 164 sel 1;
#X obj 1071 373 s screenLine5;
#X msg 1071 338 Aux off;
#X obj 1069 250 bng 15 250 50 0 empty empty empty 17 7 0 10 #fcfcfc #000000 #000000;
#X obj 1069 284 delay 1000;
#X msg 1110 164 \; led 7 \;;
#X msg 1137 338 \; led 0 \;;
#X msg 870 198 \; led 1 \;;
#X text 863 78 When Aux is pushed \, sel sends a signal left if the value is 1 (button is down) and right if the value is 0 (note off \, button has been released):;
#X text 994 49 AUX BUTTON;
#X text 870 313 Right sets LED to red \; and prints a message \; to line 5;
#X text 1180 283 Left sets the LED to white and shows a \; 'released' message on line 5 then after 1a \; turns the LED off and shows an 'off' message.;
#X obj 602 24 bng 16 250 50 0 empty empty empty 0 -8 0 10 #fcfcfc #000000 #000000;
#X obj 510 133 folder_list ./instruments/*/;
#N canvas 0 38 1008 916 dirname 0;
#X obj 576 250 inlet;
#X obj 580 295 s2l /;
#X msg 577 271 symbol \$1;
#X obj 635 319 list length;
#X floatatom 637 343 5 0 0 0 - - - 0;
#X obj 580 395 list split;
#X obj 605 570 outlet;
#X obj 637 365 - 1;
#X obj 608 424 s2l .;
#X obj 661 446 list length;
#X floatatom 662 467 5 0 0 0 - - - 0;
#X obj 662 489 - 1;
#X obj 606 516 list split;
#X text 466 168 https://forum.pdpatchrepo.info/topic/12223/how-can-i-split-a-symbol-which-holds-a-file-path-to-retrieve-only-the-name-test/3;
#X connect 0 0 2 0;
#X connect 1 0 5 0;
#X connect 1 0 3 0;
#X connect 2 0 1 0;
#X connect 3 0 4 0;
#X connect 4 0 7 0;
#X connect 5 1 8 0;
#X connect 7 0 5 1;
#X connect 8 0 9 0;
#X connect 8 0 12 0;
#X connect 9 0 10 0;
#X connect 10 0 11 0;
#X connect 11 0 12 1;
#X connect 12 1 6 0;
#X restore 510 165 pd dirname;
#X obj 707 189 text define instruments;
#X obj 704 131 text delete instruments;
#X msg 704 94 -1;
#X obj 510 199 text insert instruments;
#X obj 602 64 t b b b b;
#X obj 356 130 text size instruments;
#X obj 295 130 r knob1;
#X obj 295 159 *;
#X obj 295 189 int;
#X obj 295 245 change;
#X obj 295 273 text get instruments;
#X obj 628 24 loadbang;
#X msg 313 303 K88: \$1;
#X obj 313 329 s screenLine1;
#X obj 262 406 play_samples;
#X obj 262 436 throw~ outL;
#X obj 351 436 throw~ outR;
#X msg 37 49 \; screenLine1 K88: Cinematic Piano \; screenLine2 \; screenLine3 \; screenLine4 \; screenLine5 \;;
#X obj 37 20 bng 16 250 50 0 empty empty empty 0 -8 0 10 #fcfcfc #000000 #000000;
#X obj 295 216 min;
#X obj 262 362 symbol;
#X obj 179 278 bang;
#X obj 179 304 delay 200 1 msec;
#X obj 357 190 - 1;
#X connect 0 0 38 0;
#X connect 1 0 6 0;
#X connect 2 0 3 0;
#X connect 4 0 5 0;
#X connect 6 0 2 0;
#X connect 6 0 13 0;
#X connect 6 1 4 0;
#X connect 6 1 11 0;
#X connect 6 1 9 0;
#X connect 8 0 7 0;
#X connect 9 0 10 0;
#X connect 10 0 8 0;
#X connect 10 0 12 0;
#X connect 18 0 25 0;
#X connect 19 0 20 0;
#X connect 20 0 24 0;
#X connect 23 0 22 0;
#X connect 25 0 26 0;
#X connect 25 1 19 0;
#X connect 25 2 21 0;
#X connect 25 3 23 0;
#X connect 26 0 28 1;
#X connect 26 0 44 0;
#X connect 27 0 28 0;
#X connect 28 0 29 0;
#X connect 29 0 40 0;
#X connect 30 0 31 0;
#X connect 30 0 42 0;
#X connect 31 0 33 0;
#X connect 31 0 41 1;
#X connect 32 0 25 0;
#X connect 33 0 34 0;
#X connect 35 0 36 0;
#X connect 35 0 37 0;
#X connect 39 0 38 0;
#X connect 40 0 30 0;
#X connect 41 0 35 0;
#X connect 42 0 43 0;
#X connect 43 0 41 0;
#X connect 44 0 40 1;
