#N canvas 1003 0 2005 1664 10;
#X obj 603 23 bng 16 250 50 0 empty empty empty 0 -8 0 10 #fcfcfc #000000 #000000;
#X obj 709 250 folder_list ./instruments/*/;
#X obj 733 183 text define instruments;
#X obj 773 127 text delete instruments;
#X msg 773 100 -1;
#X obj 709 312 text insert instruments;
#X obj 382 109 text size instruments;
#X obj 321 109 r knob1;
#X obj 321 138 *;
#X obj 321 168 int;
#X obj 321 224 change;
#X obj 321 280 text get instruments;
#X obj 628 24 loadbang;
#X obj 587 547 throw~ outL;
#X obj 676 547 throw~ outR;
#X obj 321 195 min;
#X obj 288 321 symbol;
#X obj 383 169 - 1;
#X obj 709 281 split_path;
#X obj 587 517 load_instrument;
#X obj 602 64 t b b b b b, f 16;
#X obj 655 476 text define state;
#X msg 288 422 write state.txt;
#X msg 528 109 symbol instrument;
#X obj 528 162 text get state;
#X obj 528 137 text search state;
#X msg 655 442 read state.txt -cr;
#X obj 307 397 text set state 0;
#X obj 288 347 t b s s;
#X obj 205 283 delay 800 1 msec;
#X msg 307 372 list instrument \$1;
#X obj 518 254 print test;
#X obj 528 185 unpack s s;
#X obj 294 251 t b f;
#X msg 360 320 \; screenLine1 K88: \$1 \;;
#X connect 0 0 20 0;
#X connect 1 0 18 0;
#X connect 4 0 3 0;
#X connect 6 0 8 1;
#X connect 6 0 17 0;
#X connect 7 0 8 0;
#X connect 8 0 9 0;
#X connect 9 0 15 0;
#X connect 10 0 33 0;
#X connect 11 0 16 1;
#X connect 11 0 34 0;
#X connect 12 0 20 0;
#X connect 15 0 10 0;
#X connect 16 0 28 0;
#X connect 17 0 15 1;
#X connect 18 0 5 0;
#X connect 19 0 13 0;
#X connect 19 0 14 0;
#X connect 20 0 6 0;
#X connect 20 1 23 0;
#X connect 20 2 1 0;
#X connect 20 2 26 0;
#X connect 20 3 2 0;
#X connect 20 4 4 0;
#X connect 22 0 21 0;
#X connect 23 0 25 0;
#X connect 24 0 32 0;
#X connect 25 0 24 0;
#X connect 26 0 21 0;
#X connect 28 0 22 0;
#X connect 28 1 30 0;
#X connect 28 2 19 0;
#X connect 29 0 16 0;
#X connect 30 0 27 0;
#X connect 32 1 19 0;
#X connect 32 1 31 0;
#X connect 33 0 29 0;
#X connect 33 1 11 0;
