#N canvas 416 38 1074 906 10;
#X obj 602 23 bng 16 250 50 0 empty empty empty 0 -8 0 10 #fcfcfc #000000 #000000;
#X obj 510 133 folder_list ./instruments/*/;
#X obj 707 189 text define instruments;
#X obj 704 131 text delete instruments;
#X msg 704 94 -1;
#X obj 510 199 text insert instruments;
#X obj 602 64 t b b b b;
#X obj 356 130 text size instruments;
#X obj 295 130 r knob1;
#X obj 295 159 *;
#X obj 295 189 int;
#X obj 295 245 change;
#X obj 295 273 text get instruments;
#X obj 628 24 loadbang;
#X obj 262 422 throw~ outL;
#X obj 351 422 throw~ outR;
#X obj 295 216 min;
#X obj 262 362 symbol;
#X obj 179 278 bang;
#X obj 179 304 delay 200 1 msec;
#X obj 357 190 - 1;
#X obj 510 167 split_path;
#X obj 262 392 load_instrument;
#X connect 0 0 6 0;
#X connect 1 0 21 0;
#X connect 4 0 3 0;
#X connect 6 0 7 0;
#X connect 6 1 1 0;
#X connect 6 2 2 0;
#X connect 6 3 4 0;
#X connect 7 0 9 1;
#X connect 7 0 20 0;
#X connect 8 0 9 0;
#X connect 9 0 10 0;
#X connect 10 0 16 0;
#X connect 11 0 12 0;
#X connect 11 0 18 0;
#X connect 12 0 17 1;
#X connect 13 0 6 0;
#X connect 16 0 11 0;
#X connect 17 0 22 0;
#X connect 18 0 19 0;
#X connect 19 0 17 0;
#X connect 20 0 16 1;
#X connect 21 0 5 0;
#X connect 22 0 14 0;
#X connect 22 0 15 0;
