#N canvas 177 38 1335 916 12;
#X obj 688 327 unpack, f 34;
#X text 38 33 This subpatch receives an instrument name and returns a list of: (midi_note \, array_name \, note_offset \, num_samples), f 65;
#X obj 688 297 r notes;
#X text 756 296 <-- receive midi notes and velocity;
#X obj 430 547 poly 8 1, f 34;
#X obj 430 577 stripnote, f 16;
#X obj 596 58 inlet;
#X msg 824 178 -1;
#X text 1009 117 <-- ensure text lists exist;
#X text 1048 226 <-- ensure text lists begin empty;
#X obj 824 118 text define note_to_array;
#X obj 847 208 text delete note_to_array;
#X obj 596 118 load_samples;
#X obj 596 148 text fromlist note_to_array;
#X text 351 148 populate note_to_array list -->;
#X obj 596 88 t s b b;
#X text 657 57 <-- left inlet: name of instrument;
#X obj 564 598 stripnote, f 15;
#X floatatom 430 617 5 0 0 0 voice\ --> - - 0;
#X floatatom 666 636 5 0 0 1 <--\ vel - - 0;
#X floatatom 564 628 4 0 0 1 <--\ note - - 0;
#X obj 688 421 text search note_to_array \$1;
#X obj 688 451 text get note_to_array;
#X obj 688 481 unpack f s f f, f 16;
#X floatatom 688 357 5 0 0 0 midi\ note\ --> - - 0;
#X floatatom 924 501 5 0 0 1 <--\ velocity - - 0;
#X text 296 492 midi_note \, array_name \, note_offset \, num_samples -->;
#X obj 667 706 pack f f f f f s, f 23;
#X text 230 580 ignore 0-velocity notes -->;
#X obj 824 148 text define note_to_voice;
#X obj 824 238 text delete note_to_voice;
#X obj 445 822 text insert note_to_voice;
#X obj 444 784 pack f f;
#X obj 932 980 select 0;
#X obj 880 1076 text search note_to_voice \$1;
#X obj 880 1045 spigot, f 8;
#X msg 932 1011 1;
#X msg 985 1012 0;
#X obj 880 1144 text get note_to_voice 1;
#X floatatom 880 1173 5 0 0 1 <--\ voice - - 0;
#X obj 898 1112 text delete note_to_voice \$1;
#X obj 670 935 route 1 2 3 4 5 6 7 8, f 23;
#X obj 809 974 voice;
#X obj 671 1191 voice;
#X obj 690 1160 voice;
#X obj 710 1129 voice;
#X obj 728 1100 voice;
#X obj 751 1073 voice;
#X obj 769 1039 voice;
#X obj 789 1006 voice;
#X obj 817 1230 +~;
#X obj 880 1212 route 1 2 3 4 5 6 7 8, f 23;
#X obj 924 456 t f f;
#X obj 642 388 t f f f;
#X obj 431 651 t f f;
#X obj 546 731 f;
#X obj 463 698 t b f;
#X text 835 706 <>-- voice \, midi_note \, velocity \, note_offset \, num_samples \, array_name, f 69;
#X msg 534 34 symbol Tubed\ Rhodes;
#X msg 801 27 symbol Cinematic\ Piano;
#X obj 817 1270 outlet~;
#X connect 0 0 24 0;
#X connect 0 1 52 0;
#X connect 2 0 0 0;
#X connect 4 0 5 0;
#X connect 4 1 17 0;
#X connect 4 2 5 1;
#X connect 4 2 17 1;
#X connect 5 0 18 0;
#X connect 6 0 15 0;
#X connect 7 0 11 0;
#X connect 7 0 30 0;
#X connect 10 0 29 0;
#X connect 12 0 13 0;
#X connect 15 0 12 0;
#X connect 15 1 7 0;
#X connect 15 2 10 0;
#X connect 17 0 20 0;
#X connect 17 1 19 0;
#X connect 18 0 54 0;
#X connect 19 0 27 2;
#X connect 20 0 27 1;
#X connect 20 0 55 1;
#X connect 21 0 22 0;
#X connect 22 0 23 0;
#X connect 23 1 27 5;
#X connect 23 2 27 3;
#X connect 23 3 27 4;
#X connect 24 0 53 0;
#X connect 25 0 33 0;
#X connect 27 0 41 0;
#X connect 32 0 31 0;
#X connect 33 0 36 0;
#X connect 33 1 37 0;
#X connect 34 0 38 0;
#X connect 34 0 40 0;
#X connect 35 0 34 0;
#X connect 36 0 35 1;
#X connect 37 0 35 1;
#X connect 38 0 39 0;
#X connect 39 0 51 0;
#X connect 41 0 43 0;
#X connect 41 1 44 0;
#X connect 41 2 45 0;
#X connect 41 3 46 0;
#X connect 41 4 47 0;
#X connect 41 5 48 0;
#X connect 41 6 49 0;
#X connect 41 7 42 0;
#X connect 42 0 50 0;
#X connect 43 0 50 0;
#X connect 44 0 50 0;
#X connect 45 0 50 0;
#X connect 46 0 50 0;
#X connect 47 0 50 0;
#X connect 48 0 50 0;
#X connect 49 0 50 0;
#X connect 50 0 60 0;
#X connect 51 0 43 1;
#X connect 51 1 44 1;
#X connect 51 2 45 1;
#X connect 51 3 46 1;
#X connect 51 4 47 1;
#X connect 51 5 48 1;
#X connect 51 6 49 1;
#X connect 51 7 42 1;
#X connect 52 0 25 0;
#X connect 52 1 4 1;
#X connect 53 0 35 0;
#X connect 53 1 4 0;
#X connect 53 2 21 0;
#X connect 54 0 27 0;
#X connect 54 1 56 0;
#X connect 55 0 32 0;
#X connect 56 0 55 0;
#X connect 56 1 32 1;
#X connect 58 0 15 0;
#X connect 59 0 15 0;
