#N canvas -1706 -433 1706 1387 12;
#X obj 689 326 unpack, f 30;
#X text 38 33 This subpatch receives an instrument name and returns a list of: (midi_note \, array_name \, note_offset \, num_samples), f 65;
#X obj 689 296 r notes;
#X text 757 295 <-- receive midi notes and velocity;
#X obj 431 511 poly 8 1, f 34;
#X obj 431 561 stripnote, f 16;
#X obj 596 58 inlet;
#X msg 824 152 -1;
#X text 1009 121 <-- ensure text lists exist;
#X text 1045 187 <-- ensure text lists begin empty;
#X obj 824 122 text define note_to_array;
#X obj 824 182 text delete note_to_array;
#X obj 596 118 load_samples;
#X obj 596 148 text fromlist note_to_array;
#X text 355 156 populate note_to_array list -->;
#X obj 596 88 t s b b;
#X text 657 57 <-- left inlet: name of instrument;
#X msg 534 31 symbol tubed_rhodes;
#X obj 565 563 stripnote, f 15;
#X floatatom 431 600 5 0 0 0 voice\ --> - - 0;
#X floatatom 667 600 5 0 0 1 <--\ vel - - 0;
#X floatatom 565 600 4 0 0 1 <--\ note - - 0;
#X obj 669 711 clone -s 1 voice 8;
#X obj 656 760 dac~;
#X obj 688 395 text search note_to_array \$1;
#X obj 688 425 text get note_to_array;
#X obj 688 458 unpack f s f f, f 16;
#X floatatom 688 360 5 0 0 0 midi\ note\ --> - - 0;
#X floatatom 895 462 5 0 0 1 <--\ velocity - - 0;
#X text 297 456 midi_note \, array_name \, note_offset \, num_samples -->;
#X text 859 670 <-- voice \, midi_note \, velocity \, note_offset \, num_samples \, array_name, f 69;
#X obj 668 670 pack f f f f f s, f 23;
#X text 230 561 ignore 0-velocity notes -->;
#X connect 0 0 27 0;
#X connect 0 1 28 0;
#X connect 2 0 0 0;
#X connect 4 0 5 0;
#X connect 4 1 18 0;
#X connect 4 2 5 1;
#X connect 4 2 18 1;
#X connect 5 0 19 0;
#X connect 6 0 15 0;
#X connect 7 0 11 0;
#X connect 12 0 13 0;
#X connect 15 0 12 0;
#X connect 15 1 7 0;
#X connect 15 2 10 0;
#X connect 17 0 15 0;
#X connect 18 0 21 0;
#X connect 18 1 20 0;
#X connect 19 0 31 0;
#X connect 20 0 31 2;
#X connect 21 0 31 1;
#X connect 22 0 23 0;
#X connect 22 0 23 1;
#X connect 24 0 25 0;
#X connect 25 0 26 0;
#X connect 26 0 4 0;
#X connect 26 1 31 5;
#X connect 26 2 31 3;
#X connect 26 3 31 4;
#X connect 27 0 24 0;
#X connect 28 0 4 1;
#X connect 31 0 22 0;
