#N canvas 0 38 1512 916 12;
#X obj 466 118 ctlin 64;
#X obj 466 149 > 64;
#X obj 466 177 tgl 19 0 empty empty empty 0 -10 0 12 #fcfcfc #000000 #000000 0 1;
#X text 532 117 <-- sustain pedal;
#X text 370 178 pedal on -->;
#X obj 718 119 r aux;
#X msg 734 403 \; led 1 \;;
#X msg 778 316 \; led 0 \;;
#X msg 718 447 \; screenLine5 LATCH: on \;;
#X msg 761 357 \; screenLine5 LATCH: off \;;
#X text 764 120 <-- latch;
#X obj 718 213 spigot;
#X obj 718 243 tgl 19 0 empty empty empty 0 -10 0 12 #fcfcfc #000000 #000000 0 1;
#X text 743 243 <-- latch on;
#X obj 718 276 select 1 0;
#X obj 718 150 change;
#X obj 718 180 t b f, f 6;
#X obj 44 120 inlet;
#X text 94 119 <-- receive note-off messages as a bang;
#X text 358 235 <-- sustain begins off;
#X msg 44 152 1;
#X obj 44 181 int 0;
#X msg 94 152 0;
#X floatatom 44 214 5 0 0 0 - - - 0;
#X obj 44 271 spigot;
#X obj 44 242 t f f, f 6;
#X obj 251 501 spigot;
#X floatatom 290 474 3 0 0 0 - - - 0;
#X obj 437 357 select 1 0;
#X msg 437 388 0;
#X msg 470 388 1;
#X floatatom 251 474 3 0 0 0 - - - 0;
#X obj 574 282 max;
#X obj 617 283 max;
#X obj 292 235 loadbang;
#X obj 251 535 t b b;
#X text 129 152 <-- reset;
#X obj 284 610 outlet;
#X text 39 10 Handles sustain and latch modes. When either is active \, note-off messages are captured and held until both latch and sustain are disabled \, then sends a bang to the outlet.;
#X text 341 610 <-- send bang for note-off;
#X text 307 502 <-- pedal/latch captures note-off;
#X obj 574 314 change;
#X obj 470 414 t b f;
#X connect 0 0 1 0;
#X connect 1 0 2 0;
#X connect 2 0 32 0;
#X connect 2 0 33 1;
#X connect 5 0 15 0;
#X connect 11 0 12 0;
#X connect 12 0 14 0;
#X connect 12 0 32 1;
#X connect 12 0 33 0;
#X connect 14 0 6 0;
#X connect 14 0 8 0;
#X connect 14 1 7 0;
#X connect 14 1 9 0;
#X connect 15 0 16 0;
#X connect 16 0 11 0;
#X connect 16 1 11 1;
#X connect 17 0 20 0;
#X connect 20 0 21 0;
#X connect 21 0 23 0;
#X connect 22 0 21 0;
#X connect 23 0 25 0;
#X connect 24 0 31 0;
#X connect 25 0 24 0;
#X connect 25 1 24 1;
#X connect 26 0 35 0;
#X connect 27 0 26 1;
#X connect 28 0 29 0;
#X connect 28 1 30 0;
#X connect 29 0 27 0;
#X connect 30 0 42 0;
#X connect 31 0 26 0;
#X connect 32 0 41 0;
#X connect 33 0 41 0;
#X connect 34 0 27 0;
#X connect 35 0 22 0;
#X connect 35 1 37 0;
#X connect 41 0 28 0;
#X connect 42 0 21 0;
#X connect 42 1 27 0;
