#N canvas 0 38 1512 916 12;
#X msg 668 441 set \$1;
#X floatatom 1053 361 5 0 0 1 <--\ note\ offset\ (semitones) - - 0;
#X obj 496 14 inlet, f 7;
#X obj 430 470 samphold~;
#X obj 895 617 samphold~;
#X obj 411 548 +~;
#X obj 412 602 tabread4~;
#X obj 739 890 outlet~;
#X msg 395 263 0;
#X obj 921 478 +~ 0.5;
#X obj 922 509 wrap~;
#X obj 879 689 +~;
#X obj 879 745 tabread4~;
#X obj 739 859 *~ 0.6;
#X obj 590 542 cos~;
#X obj 572 596 *~ 0.5;
#X obj 454 649 *~;
#X obj 539 544 sig~ 1;
#X obj 572 571 -~;
#X obj 1017 684 cos~;
#X obj 1000 738 *~ 0.5;
#X obj 963 683 sig~ 1;
#X obj 1000 712 -~;
#X obj 930 796 *~;
#X floatatom 1195 151 5 0 0 0 window\ size\ in\ samples\ --> - - 0;
#X obj 1195 180 / 44100;
#X floatatom 1195 212 5 0 0 0 window\ length\ in\ seconds\ --> - - 0;
#X obj 1195 244 expr 1 / $f1;
#X floatatom 1195 279 5 0 0 0 window\ frequency\ in\ Hz\ --> - - 0;
#X floatatom 1053 419 5 0 0 1 <--\ pitch\ shift\ ratio - - 0;
#X obj 382 507 *~;
#X obj 850 655 *~;
#X obj 1053 390 expr pow(2 \, $f1/12);
#X obj 430 507 +~;
#X obj 897 656 +~;
#X obj 516 469 samphold~;
#X obj 975 616 samphold~;
#X obj 352 470 *~ 14700;
#X obj 820 618 *~ 14700;
#X obj 336 293 phasor~ 3;
#X msg 1195 120 14700;
#N canvas 0 38 1512 916 random_number_generator 0;
#X floatatom 706 188 5 0 0 0 - - - 0;
#X obj 706 131 metro 500;
#X obj 706 158 random 440;
#X obj 705 103 loadbang;
#X obj 707 216 outlet;
#X connect 0 0 4 0;
#X connect 1 0 2 0;
#X connect 2 0 0 0;
#X connect 3 0 1 0;
#X restore 958 105 pd random_number_generator;
#X obj 1053 334 / 100;
#X text 581 619 window = 14700 samples at 3Hz -->;
#X obj 362 45 t b b;
#X text 279 264 reset phase -->;
#X text 274 47 note on -->;
#X obj 362 14 inlet;
#X obj 430 15 inlet~;
#X text 681 46 <-- cents \, array_name, f 35;
#X obj 496 46 unpack f s, f 24;
#X connect 0 0 6 0;
#X connect 0 0 12 0;
#X connect 1 0 32 0;
#X connect 2 0 50 0;
#X connect 3 0 33 0;
#X connect 4 0 34 0;
#X connect 5 0 6 0;
#X connect 6 0 16 0;
#X connect 8 0 39 1;
#X connect 9 0 10 0;
#X connect 10 0 4 1;
#X connect 10 0 19 0;
#X connect 10 0 36 1;
#X connect 10 0 38 0;
#X connect 11 0 12 0;
#X connect 12 0 23 0;
#X connect 13 0 7 0;
#X connect 14 0 18 1;
#X connect 15 0 16 1;
#X connect 16 0 13 0;
#X connect 17 0 18 0;
#X connect 18 0 15 0;
#X connect 19 0 22 1;
#X connect 20 0 23 1;
#X connect 21 0 22 0;
#X connect 22 0 20 0;
#X connect 23 0 13 0;
#X connect 24 0 25 0;
#X connect 25 0 26 0;
#X connect 26 0 27 0;
#X connect 27 0 28 0;
#X connect 29 0 30 1;
#X connect 29 0 31 1;
#X connect 30 0 5 0;
#X connect 31 0 11 0;
#X connect 32 0 29 0;
#X connect 33 0 5 1;
#X connect 34 0 11 1;
#X connect 35 0 33 1;
#X connect 36 0 34 1;
#X connect 37 0 30 0;
#X connect 38 0 31 0;
#X connect 39 0 3 1;
#X connect 39 0 9 0;
#X connect 39 0 14 0;
#X connect 39 0 35 1;
#X connect 39 0 37 0;
#X connect 40 0 24 0;
#X connect 41 0 35 0;
#X connect 41 0 36 0;
#X connect 42 0 1 0;
#X connect 44 1 8 0;
#X connect 47 0 44 0;
#X connect 48 0 3 0;
#X connect 48 0 4 0;
#X connect 50 0 42 0;
#X connect 50 1 0 0;
