#N canvas 0 38 1512 916 12;
#X msg 865 93 set \$1;
#X floatatom 311 131 5 0 0 1 <--\ note\ offset\ (semitones) - - 0;
#X obj 699 28 inlet, f 7;
#X obj 699 60 unpack f f f f s, f 24;
#X obj 1275 24 inlet, f 6;
#X obj 1234 237 switch~;
#X text 247 61 midi_note \, velocity \, note_offset \, num_samples \, array_name -->, f 62;
#X msg 1234 179 1;
#X msg 1277 180 0;
#X floatatom 1234 210 5 0 0 0 - - - 0;
#X obj 422 345 samphold~;
#X obj 789 548 samphold~;
#X obj 406 428 +~;
#X obj 462 584 tabread4~;
#X obj 730 800 outlet~;
#X msg 761 122 0;
#X obj 810 379 +~ 0.5;
#X obj 811 410 wrap~;
#X obj 773 620 +~;
#X obj 974 682 tabread4~;
#X obj 730 768 *~ 0.6;
#X obj 578 547 cos~;
#X obj 560 601 *~ 0.5;
#X obj 504 631 *~;
#X obj 527 549 sig~ 1;
#X obj 560 576 -~;
#X obj 1104 623 cos~;
#X obj 1087 677 *~ 0.5;
#X obj 1050 622 sig~ 1;
#X obj 1087 651 -~;
#X obj 1025 733 *~;
#X floatatom 346 645 5 0 0 0 window\ size\ in\ samples\ --> - - 0;
#X obj 347 682 / 44100;
#X floatatom 347 718 5 0 0 0 window\ length\ in\ seconds\ --> - - 0;
#X obj 348 752 expr 1 / $f1;
#X floatatom 348 796 5 0 0 0 window\ frequency\ in\ Hz\ --> - - 0;
#X floatatom 310 209 5 0 0 1 <--\ pitch\ shift\ ratio - - 0;
#X obj 374 382 *~;
#X obj 744 586 *~;
#X obj 311 170 expr pow(2 \, $f1/12);
#X obj 1301 146 select 0;
#X text 968 24 bang the 2nd inlet to switch off sound -->;
#X text 544 159 grains are 200ms -->;
#X obj 422 382 +~;
#X obj 791 587 +~;
#X obj 505 343 samphold~;
#X obj 869 547 samphold~;
#X obj 349 347 *~ 14700;
#X obj 714 549 *~ 14700;
#X obj 701 156 phasor~ 3;
#X msg 346 608 14700;
#X text 60 347 window size = 14700 samples at 3Hz -->;
#X obj 944 265 line~;
#X msg 944 234 0 \, \$1 \$2;
#X obj 942 204 pack f f;
#X obj 978 174 expr $f1 / 44.1;
#X obj 941 144 t f f;
#X text 990 266 <-- plays at original speed;
#N canvas 0 38 1512 916 random_number_generator 0;
#X floatatom 706 188 5 0 0 0 - - - 0;
#X obj 706 131 metro 500;
#X obj 706 158 random 440;
#X obj 705 103 loadbang;
#X obj 707 216 outlet;
#X connect 0 0 4 0;
#X connect 1 0 2 0;
#X connect 2 0 0 0;
#X connect 3 0 1 0;
#X restore 993 325 pd random_number_generator;
#X connect 0 0 13 0;
#X connect 0 0 19 0;
#X connect 1 0 39 0;
#X connect 2 0 3 0;
#X connect 3 0 7 0;
#X connect 3 0 15 0;
#X connect 3 1 40 0;
#X connect 3 2 1 0;
#X connect 3 3 56 0;
#X connect 3 4 0 0;
#X connect 4 0 8 0;
#X connect 7 0 9 0;
#X connect 8 0 9 0;
#X connect 9 0 5 0;
#X connect 10 0 43 0;
#X connect 11 0 44 0;
#X connect 12 0 13 0;
#X connect 13 0 23 0;
#X connect 15 0 49 1;
#X connect 16 0 17 0;
#X connect 17 0 11 1;
#X connect 17 0 26 0;
#X connect 17 0 46 1;
#X connect 17 0 48 0;
#X connect 18 0 19 0;
#X connect 19 0 30 0;
#X connect 20 0 14 0;
#X connect 21 0 25 1;
#X connect 22 0 23 1;
#X connect 23 0 20 0;
#X connect 24 0 25 0;
#X connect 25 0 22 0;
#X connect 26 0 29 1;
#X connect 27 0 30 1;
#X connect 28 0 29 0;
#X connect 29 0 27 0;
#X connect 30 0 20 0;
#X connect 31 0 32 0;
#X connect 32 0 33 0;
#X connect 33 0 34 0;
#X connect 34 0 35 0;
#X connect 36 0 37 1;
#X connect 36 0 38 1;
#X connect 37 0 12 0;
#X connect 38 0 18 0;
#X connect 39 0 36 0;
#X connect 40 0 8 0;
#X connect 43 0 12 1;
#X connect 44 0 18 1;
#X connect 45 0 43 1;
#X connect 46 0 44 1;
#X connect 47 0 37 0;
#X connect 48 0 38 0;
#X connect 49 0 10 1;
#X connect 49 0 16 0;
#X connect 49 0 21 0;
#X connect 49 0 45 1;
#X connect 49 0 47 0;
#X connect 50 0 31 0;
#X connect 52 0 10 0;
#X connect 52 0 11 0;
#X connect 53 0 52 0;
#X connect 54 0 53 0;
#X connect 55 0 54 1;
#X connect 56 0 55 0;
#X connect 56 1 54 0;
#X connect 58 0 45 0;
#X connect 58 0 46 0;
