#N canvas -1706 -433 1706 1387 12;
#X obj 471 52 inlet, f 7;
#X obj 470 235 unpack f f f f s, f 24;
#X obj 458 1260 outlet~;
#X obj 914 957 line~;
#X obj 914 988 cos~;
#X floatatom 510 893 5 0 0 1 <--\ velocity - - 0;
#X obj 510 922 / 100;
#X obj 458 956 *~;
#X obj 1393 197 r knob2;
#X obj 945 795 *;
#X floatatom 945 854 8 0 0 1 <--\ decay\ ms - - 0;
#X obj 1393 284 change;
#X msg 1393 410 \; screenLine2 DECAY: \$1 \;;
#X msg 1393 380 symbol \$1%;
#X msg 914 921 0 \, 0.5 \$1;
#X obj 914 1021 /~ 2;
#X obj 914 1051 +~ 0.5;
#X obj 456 690 transpose, f 14;
#X obj 555 423 * 100;
#X obj 456 663 bang;
#X obj 659 585 line~;
#X msg 659 555 0 \, \$1 \$2;
#X obj 658 530 pack f f;
#X obj 711 471 expr $f1 / 44.1;
#X obj 658 446 t f f, f 8;
#X floatatom 711 501 8 0 0 1 <--\ sample\ ms - - 0;
#X obj 658 417 float;
#X obj 554 489 pack f s, f 12;
#X text 1002 920 <-- decay envelope;
#X text 1453 199 <-- decay;
#X obj 708 691 tgl 19 0 empty empty <--\ note\ on 25 10 0 12 #fcfcfc #000000 #000000 0 1;
#X msg 726 655 0;
#X msg 686 654 1;
#X obj 915 1099 *~;
#X obj 708 754 select 1 0;
#X msg 745 882 0;
#X obj 915 1127 +~;
#X msg 709 882 1;
#X msg 741 827 0;
#X msg 780 828 1;
#X obj 317 1150 line~;
#X obj 458 1223 *~;
#X obj 238 359 t b b b b b, f 17;
#X obj 523 451 float;
#X obj 238 291 t b b, f 20;
#X obj 238 326 delay 2;
#X msg 247 1106 0 \, 1 2;
#X msg 389 1108 1 \, 0 2;
#X text 95 327 fade out/in 2ms -->;
#X obj 708 721 change;
#X obj 913 888 float;
#X obj 1142 203 ctlin 64;
#X obj 1143 237 > 64;
#X obj 1115 270 tgl 19 0 empty empty empty 0 -10 0 12 #fcfcfc #000000 #000000 0 1;
#X text 39 82 note_on \, velocity \, note_offset \, num_samples \, array_name -->, f 60;
#X obj 1589 205 r aux;
#X msg 1595 532 \; led 1 \;;
#X msg 1781 487 \; led 0 \;;
#X msg 1481 570 \; screenLine5 LATCH: on \;;
#X msg 1665 531 \; screenLine5 LATCH: off \;;
#X text 1641 205 <-- latch;
#X obj 457 1177 *~;
#X obj 1393 225 float 0;
#X obj 1393 255 max 0.05;
#X obj 1090 668 max;
#X obj 1131 668 max;
#X obj 1135 719 max;
#X obj 1091 718 max;
#X obj 945 826 / 44.1, f 7;
#X obj 881 617 t b b;
#X obj 689 325 t f f, f 8;
#X obj 1589 303 spigot;
#X obj 1622 368 tgl 19 0 empty empty empty 0 -10 0 12 #fcfcfc #000000 #000000 0 1;
#X text 1648 367 <-- latch on;
#X obj 1622 401 select 1 0;
#X text 1208 202 <-- sustain pedal;
#X text 1023 272 pedal on -->;
#X obj 1588 237 change;
#X obj 1589 271 t b f, f 6;
#X obj 1589 333 t b b;
#X obj 1144 270 t f f;
#X obj 880 507 int 0, f 6;
#X obj 881 585 spigot;
#X msg 1004 509 1;
#X msg 940 507 0;
#X text 937 585 <-- pedal/latch disables note-off;
#X floatatom 920 551 5 0 0 0 - - - 0;
#X obj 841 611 bng 19 250 50 0 empty empty empty 0 -10 0 12 #fcfcfc #000000 #000000;
#X obj 974 469 t b b;
#X obj 941 438 select 1 0;
#X obj 1394 316 * 100;
#X obj 1393 347 int;
#X obj 569 170 select 0;
#X msg 569 196 1;
#X obj 503 110 unpack f f f f s, f 20;
#X obj 471 81 t l l;
#X obj 471 175 spigot;
#X obj 537 139 t f f;
#X text 637 169 <-- pass note-off messages to decay envelope;
#X text 195 174 block 0-velocity note-off messages -->;
#X obj 1027 470 loadbang;
#X text 1093 470 <-- sustain begins off;
#X connect 0 0 95 0;
#X connect 1 0 44 0;
#X connect 1 1 5 0;
#X connect 1 2 18 0;
#X connect 1 3 70 0;
#X connect 1 4 27 1;
#X connect 3 0 4 0;
#X connect 4 0 15 0;
#X connect 5 0 6 0;
#X connect 6 0 7 1;
#X connect 7 0 61 0;
#X connect 8 0 62 0;
#X connect 9 0 68 0;
#X connect 10 0 50 1;
#X connect 11 0 66 0;
#X connect 11 0 67 1;
#X connect 11 0 90 0;
#X connect 13 0 12 0;
#X connect 14 0 3 0;
#X connect 15 0 16 0;
#X connect 16 0 33 0;
#X connect 17 0 7 0;
#X connect 18 0 43 1;
#X connect 19 0 17 0;
#X connect 20 0 17 1;
#X connect 21 0 20 0;
#X connect 22 0 21 0;
#X connect 23 0 25 0;
#X connect 24 0 22 0;
#X connect 24 1 23 0;
#X connect 25 0 22 1;
#X connect 26 0 24 0;
#X connect 27 0 17 2;
#X connect 30 0 49 0;
#X connect 31 0 30 0;
#X connect 32 0 30 0;
#X connect 33 0 36 0;
#X connect 34 0 35 0;
#X connect 34 0 37 0;
#X connect 34 1 38 0;
#X connect 34 1 39 0;
#X connect 35 0 33 1;
#X connect 36 0 61 1;
#X connect 37 0 36 1;
#X connect 38 0 36 1;
#X connect 39 0 33 1;
#X connect 40 0 41 1;
#X connect 41 0 2 0;
#X connect 42 0 46 0;
#X connect 42 1 19 0;
#X connect 42 2 43 0;
#X connect 42 3 32 0;
#X connect 42 4 26 0;
#X connect 43 0 27 0;
#X connect 44 0 45 0;
#X connect 44 1 47 0;
#X connect 45 0 42 0;
#X connect 46 0 40 0;
#X connect 47 0 40 0;
#X connect 49 0 34 0;
#X connect 50 0 14 0;
#X connect 51 0 52 0;
#X connect 52 0 53 0;
#X connect 52 0 80 0;
#X connect 55 0 77 0;
#X connect 61 0 41 0;
#X connect 62 0 63 0;
#X connect 63 0 11 0;
#X connect 64 0 66 1;
#X connect 64 0 67 0;
#X connect 65 0 66 1;
#X connect 65 0 67 0;
#X connect 66 0 9 0;
#X connect 67 0 9 0;
#X connect 68 0 10 0;
#X connect 69 0 31 0;
#X connect 69 1 50 0;
#X connect 70 0 26 1;
#X connect 70 1 9 1;
#X connect 71 0 79 0;
#X connect 72 0 74 0;
#X connect 72 0 64 1;
#X connect 72 0 65 0;
#X connect 72 0 89 0;
#X connect 74 0 56 0;
#X connect 74 0 58 0;
#X connect 74 1 57 0;
#X connect 74 1 59 0;
#X connect 77 0 78 0;
#X connect 78 0 71 0;
#X connect 78 1 71 1;
#X connect 79 1 72 0;
#X connect 80 0 89 0;
#X connect 80 1 64 0;
#X connect 80 1 65 1;
#X connect 81 0 82 0;
#X connect 82 0 69 0;
#X connect 82 0 87 0;
#X connect 83 0 86 0;
#X connect 84 0 86 0;
#X connect 86 0 82 1;
#X connect 88 0 81 0;
#X connect 88 1 83 0;
#X connect 89 0 84 0;
#X connect 89 1 88 0;
#X connect 90 0 91 0;
#X connect 91 0 13 0;
#X connect 92 0 93 0;
#X connect 93 0 81 0;
#X connect 94 1 97 0;
#X connect 95 0 96 0;
#X connect 95 1 94 0;
#X connect 96 0 1 0;
#X connect 97 0 96 1;
#X connect 97 1 92 0;
#X connect 100 0 83 0;
