#N canvas -1706 -433 1706 1387 12;
#X obj 203 38 inlet, f 7;
#X obj 203 70 unpack f f f f s, f 24;
#X obj 765 41 inlet, f 6;
#X msg 874 750 1;
#X obj 192 1011 outlet~;
#X obj 1068 435 line~;
#X obj 1068 466 cos~;
#X floatatom 209 882 5 0 0 1 <--\ velocity - - 0;
#X obj 209 911 / 100;
#X obj 191 942 *~;
#X obj 1115 37 r knob2;
#X floatatom 1115 66 5 0 0 0 - - - 0;
#X obj 1068 187 *;
#X floatatom 1068 246 8 0 0 0 decay\ ms\ --> - - 0;
#X obj 1115 93 * 100;
#X obj 1115 147 change;
#X obj 1172 216 symbol OFF;
#X obj 1172 181 sel 100, f 14;
#X msg 1172 250 \; screenLine2 DECAY: \$1 \;;
#X msg 1267 216 symbol \$1%;
#X obj 1068 218 / 4410, f 7;
#X msg 1068 405 0 \, 0.5 \$1;
#X obj 1068 499 /~ 2;
#X obj 1069 531 +~ 0.5;
#X obj 796 490 snapshot~;
#X obj 764 524 -, f 5;
#X obj 764 457 int;
#X floatatom 764 567 9 0 0 1 <--\ samples\ remaining - - 0;
#X obj 915 712 delay;
#X obj 915 652 / 44.1;
#X obj 764 604 t f f, f 22;
#X floatatom 915 680 7 0 0 0 note\ off\ ms\ --> - - 0;
#X obj 764 426 t b b;
#X msg 916 750 0;
#X obj 957 796 switch~;
#X floatatom 911 822 5 0 0 0 - - - 0;
#X obj 829 787 spigot;
#X msg 637 601 100;
#X obj 192 977 *~;
#X text 483 601 very short decay -->;
#X msg 1031 405 0;
#X obj 1116 121 max 5;
#X obj 196 528 transpose, f 13;
#X obj 284 423 * 100;
#X text 32 186 cents \, num_samples \, array_name -->, f 35;
#X obj 196 501 bang;
#X text 142 13 <-- note_on \, velocity \, note_offset \, num_samples \, array_name, f 62;
#X obj 393 472 line~;
#X msg 393 444 0 \, \$1 \$2;
#X obj 392 418 pack f f;
#X obj 444 362 expr $f1 / 44.1;
#X obj 391 337 t f f, f 8;
#X text 442 472 <-- plays at original speed;
#X floatatom 445 390 8 0 0 1 <--\ sample\ ms - - 0;
#X obj 391 308 float;
#X obj 203 122 t b b b b;
#X obj 284 453 pack f s, f 12;
#X obj 326 105 t f f, f 15;
#X text 1107 467 <-- decay envelope;
#X text 1176 36 <-- decay;
#X text 666 41 note off -->;
#X text 222 978 <-- decay;
#X obj 372 647 delay 5;
#X connect 0 0 1 0;
#X connect 1 0 55 0;
#X connect 1 1 7 0;
#X connect 1 2 43 0;
#X connect 1 3 57 0;
#X connect 1 4 56 1;
#X connect 2 0 32 0;
#X connect 3 0 34 0;
#X connect 3 0 35 0;
#X connect 3 0 36 1;
#X connect 5 0 6 0;
#X connect 6 0 22 0;
#X connect 7 0 8 0;
#X connect 8 0 9 1;
#X connect 9 0 38 0;
#X connect 10 0 11 0;
#X connect 11 0 14 0;
#X connect 12 0 20 0;
#X connect 13 0 21 0;
#X connect 14 0 41 0;
#X connect 15 0 12 1;
#X connect 15 0 17 0;
#X connect 16 0 18 0;
#X connect 17 0 16 0;
#X connect 17 1 19 0;
#X connect 19 0 18 0;
#X connect 20 0 13 0;
#X connect 21 0 5 0;
#X connect 22 0 23 0;
#X connect 23 0 38 1;
#X connect 24 0 25 1;
#X connect 25 0 27 0;
#X connect 26 0 25 0;
#X connect 27 0 30 0;
#X connect 28 0 33 0;
#X connect 29 0 31 0;
#X connect 30 0 12 0;
#X connect 30 1 29 0;
#X connect 31 0 28 0;
#X connect 32 0 26 0;
#X connect 32 1 24 0;
#X connect 33 0 34 0;
#X connect 33 0 35 0;
#X connect 33 0 36 1;
#X connect 36 0 37 0;
#X connect 37 0 27 0;
#X connect 38 0 4 0;
#X connect 40 0 5 0;
#X connect 41 0 15 0;
#X connect 42 0 9 0;
#X connect 43 0 56 0;
#X connect 45 0 42 0;
#X connect 47 0 42 1;
#X connect 47 0 24 0;
#X connect 48 0 47 0;
#X connect 49 0 48 0;
#X connect 50 0 53 0;
#X connect 51 0 49 0;
#X connect 51 1 50 0;
#X connect 53 0 49 1;
#X connect 54 0 51 0;
#X connect 55 0 45 0;
#X connect 55 1 54 0;
#X connect 55 2 40 0;
#X connect 55 3 3 0;
#X connect 56 0 42 2;
#X connect 57 0 26 0;
#X connect 57 1 54 1;
