#N canvas 0 38 1512 916 12;
#X obj 537 46 inlet, f 7;
#X obj 537 78 unpack f f f f s, f 24;
#X obj 1044 52 inlet, f 6;
#X obj 525 1254 outlet~;
#X obj 1048 953 line~;
#X obj 1048 984 cos~;
#X floatatom 577 887 5 0 0 1 <--\ velocity - - 0;
#X obj 577 916 / 100;
#X obj 525 950 *~;
#X obj 1273 45 r knob2;
#X obj 1369 792 *;
#X floatatom 1369 851 8 0 0 0 decay\ ms\ --> - - 0;
#X obj 1273 132 change;
#X obj 1273 224 symbol OFF;
#X msg 1273 258 \; screenLine2 DECAY: \$1 \;;
#X msg 1368 224 symbol \$1%;
#X msg 1048 917 0 \, 0.5 \$1;
#X obj 1048 1017 /~ 2;
#X obj 1048 1047 +~ 0.5;
#X obj 1126 604 snapshot~;
#X obj 1094 638 -, f 5;
#X obj 1094 571 int;
#X floatatom 1093 671 9 0 0 1 <--\ samples\ remaining - - 0;
#X obj 1244 792 delay;
#X obj 1244 736 / 44.1;
#X obj 1093 703 t f f, f 22;
#X floatatom 1244 764 7 0 0 0 note\ off\ ms\ --> - - 0;
#X obj 1093 518 t b b;
#X obj 525 655 transpose, f 14;
#X obj 621 491 * 100;
#X obj 525 628 bang;
#X obj 726 484 line~;
#X msg 726 454 0 \, \$1 \$2;
#X obj 725 429 pack f f;
#X obj 778 370 expr $f1 / 44.1;
#X obj 725 345 t f f, f 8;
#X text 776 480 <-- plays at original speed;
#X floatatom 778 400 8 0 0 1 <--\ sample\ ms - - 0;
#X obj 725 316 float;
#X obj 620 557 pack f s, f 12;
#X text 1124 925 <-- decay envelope;
#X text 1333 47 <-- decay;
#X text 951 53 note off -->;
#X obj 756 168 t f f f, f 20;
#X obj 775 685 tgl 19 0 empty empty <--\ note\ on 25 10 0 12 #fcfcfc #000000 #000000 0 1;
#X msg 793 649 0;
#X msg 753 648 1;
#X obj 1050 1148 *~;
#X obj 775 748 select 1 0;
#X msg 812 876 0;
#X obj 1050 1176 +~;
#X msg 776 876 1;
#X msg 808 821 0;
#X msg 847 822 1;
#X obj 1044 90 t b b b;
#X obj 384 1144 line~;
#X obj 525 1217 *~;
#X obj 305 202 t b b b b b, f 17;
#X obj 589 519 float;
#X obj 305 134 t b b, f 20;
#X obj 305 169 delay 2;
#X msg 314 1100 0 \, 1 2;
#X msg 456 1102 1 \, 0 2;
#X text 162 170 fade out/in 2ms -->;
#X obj 775 715 change;
#X obj 1047 884 float;
#X obj 1626 49 ctlin 64;
#X obj 1626 81 > 64;
#X obj 1601 112 tgl 19 0 empty empty empty 0 -10 0 12 #fcfcfc #000000 #000000 0 1;
#X text 1493 48 sustain pedal -->;
#X text 111 47 note_on \, velocity \, note_offset \, num_samples \, array_name -->, f 60;
#X obj 1888 49 r aux;
#X msg 1913 126 \; led 1 \;;
#X obj 1925 80 sel 1 0, f 9;
#X msg 1996 126 \; led 0 \;;
#X msg 1802 175 \; screenLine5 LATCH: on \;;
#X msg 1997 174 \; screenLine5 LATCH: off \;;
#X text 1940 49 <-- latch;
#X obj 522 1129 *~;
#X obj 1273 73 float 0;
#X obj 1273 103 max 0.05;
#X obj 1273 161 sel 1, f 14;
#X obj 1368 192 * 100;
#X obj 1627 169 max;
#X obj 1668 169 max;
#X obj 1858 100 tgl 19 0 empty empty empty 0 -10 0 12 #fcfcfc #000000 #000000 0 1;
#X obj 1672 220 max;
#X obj 1628 219 max;
#X obj 1369 823 / 44.1, f 7;
#X connect 0 0 1 0;
#X connect 1 0 59 0;
#X connect 1 1 6 0;
#X connect 1 2 29 0;
#X connect 1 3 43 0;
#X connect 1 4 39 1;
#X connect 2 0 54 0;
#X connect 4 0 5 0;
#X connect 5 0 17 0;
#X connect 6 0 7 0;
#X connect 7 0 8 1;
#X connect 8 0 78 0;
#X connect 9 0 79 0;
#X connect 10 0 88 0;
#X connect 11 0 65 1;
#X connect 12 0 81 0;
#X connect 12 0 86 0;
#X connect 12 0 87 1;
#X connect 13 0 14 0;
#X connect 15 0 14 0;
#X connect 16 0 4 0;
#X connect 17 0 18 0;
#X connect 18 0 47 0;
#X connect 19 0 20 1;
#X connect 20 0 22 0;
#X connect 21 0 20 0;
#X connect 22 0 25 0;
#X connect 24 0 26 0;
#X connect 25 1 24 0;
#X connect 26 0 23 0;
#X connect 27 0 21 0;
#X connect 27 1 19 0;
#X connect 28 0 8 0;
#X connect 29 0 58 1;
#X connect 30 0 28 0;
#X connect 31 0 19 0;
#X connect 31 0 28 1;
#X connect 32 0 31 0;
#X connect 33 0 32 0;
#X connect 34 0 37 0;
#X connect 35 0 33 0;
#X connect 35 1 34 0;
#X connect 37 0 33 1;
#X connect 38 0 35 0;
#X connect 39 0 28 2;
#X connect 43 0 38 1;
#X connect 43 1 21 1;
#X connect 43 2 10 1;
#X connect 44 0 64 0;
#X connect 45 0 44 0;
#X connect 46 0 44 0;
#X connect 47 0 50 0;
#X connect 48 0 49 0;
#X connect 48 0 51 0;
#X connect 48 1 52 0;
#X connect 48 1 53 0;
#X connect 49 0 47 1;
#X connect 50 0 78 1;
#X connect 51 0 50 1;
#X connect 52 0 50 1;
#X connect 53 0 47 1;
#X connect 54 0 45 0;
#X connect 54 1 65 0;
#X connect 54 2 27 0;
#X connect 55 0 56 1;
#X connect 56 0 3 0;
#X connect 57 0 61 0;
#X connect 57 1 30 0;
#X connect 57 2 58 0;
#X connect 57 3 46 0;
#X connect 57 4 38 0;
#X connect 58 0 39 0;
#X connect 59 0 60 0;
#X connect 59 1 62 0;
#X connect 60 0 57 0;
#X connect 61 0 55 0;
#X connect 62 0 55 0;
#X connect 64 0 48 0;
#X connect 65 0 16 0;
#X connect 66 0 67 0;
#X connect 67 0 68 0;
#X connect 67 0 83 0;
#X connect 67 0 84 1;
#X connect 71 0 73 0;
#X connect 71 0 83 1;
#X connect 71 0 84 0;
#X connect 71 0 85 0;
#X connect 73 0 72 0;
#X connect 73 0 75 0;
#X connect 73 1 74 0;
#X connect 73 1 76 0;
#X connect 78 0 56 0;
#X connect 79 0 80 0;
#X connect 80 0 12 0;
#X connect 81 0 13 0;
#X connect 81 1 82 0;
#X connect 82 0 15 0;
#X connect 83 0 86 1;
#X connect 83 0 87 0;
#X connect 84 0 86 1;
#X connect 84 0 87 0;
#X connect 86 0 10 0;
#X connect 87 0 10 0;
#X connect 88 0 11 0;
