#N canvas -1868 -127 1806 1002 12;
#X obj 632 569 +~ 1;
#X obj 666 636 *~;
#X obj 632 509 samphold~;
#X obj 632 539 *~;
#X obj 912 391 /;
#X obj 716 539 -~ 0.5;
#X obj 716 569 *~ 0.5;
#X obj 716 599 cos~;
#X obj 912 450 phasor~;
#X obj 912 480 +~ 0.5;
#X obj 912 510 wrap~;
#X obj 853 599 +~ 1;
#X obj 899 717 *~;
#X obj 853 569 samphold~;
#X obj 853 599 *~;
#X obj 944 617 -~ 0.5;
#X obj 944 647 *~ 0.5;
#X obj 944 677 cos~;
#X obj 758 755 +~;
#X obj 912 361 expr pow(2 \, $f1/1200);
#X text 970 479 second phase signal out of phase from first one, f 13;
#X floatatom 912 421 7 0 0 1 \ <--\ loop\ freq - - 0;
#X floatatom 822 231 5 0 0 1 \ <--\ duration\ seconds - - 0;
#X floatatom 632 477 5 0 0 0 num\ samples\ --> - - 0;
#X msg 864 162 set \$1;
#X obj 632 599 tabread4~;
#X obj 853 683 tabread4~;
#X obj 822 201 / 44100;
#X obj 912 302 * 100;
#X floatatom 912 332 5 0 0 1 \ <--\ note\ offset\ (cents) - - 0;
#X floatatom 912 273 5 0 0 1 \ <--\ note\ offset\ (semitones) - - 0;
#X text 801 754 <-- sum the two copies;
#X obj 699 80 inlet, f 7;
#X obj 758 785 outlet~;
#X text 878 113 <-- midi_note \, velocity \, note_offset \, num_samples \, array_name, f 65;
#X obj 699 112 unpack f f f f s, f 24;
#X connect 0 0 25 0;
#X connect 1 0 18 0;
#X connect 2 0 3 0;
#X connect 3 0 0 0;
#X connect 4 0 21 0;
#X connect 5 0 6 0;
#X connect 6 0 7 0;
#X connect 7 0 1 1;
#X connect 8 0 9 0;
#X connect 8 0 2 1;
#X connect 8 0 3 1;
#X connect 8 0 5 0;
#X connect 9 0 10 0;
#X connect 10 0 15 0;
#X connect 10 0 13 1;
#X connect 10 0 14 1;
#X connect 11 0 26 0;
#X connect 12 0 18 1;
#X connect 13 0 14 0;
#X connect 14 0 11 0;
#X connect 15 0 16 0;
#X connect 16 0 17 0;
#X connect 17 0 12 1;
#X connect 18 0 33 0;
#X connect 19 0 4 0;
#X connect 21 0 8 0;
#X connect 22 0 4 1;
#X connect 23 0 2 0;
#X connect 23 0 13 0;
#X connect 24 0 25 0;
#X connect 24 0 26 0;
#X connect 25 0 1 0;
#X connect 26 0 12 0;
#X connect 27 0 22 0;
#X connect 28 0 29 0;
#X connect 29 0 19 0;
#X connect 30 0 28 0;
#X connect 32 0 35 0;
#X connect 35 2 30 0;
#X connect 35 3 23 0;
#X connect 35 3 27 0;
#X connect 35 4 24 0;
